<svg width="34" height="35" viewBox="0 0 34 35" fill="none" xmlns="http://www.w3.org/2000/svg">
<g clip-path="url(#clip0)" filter="url(#filter0_dd)">
<path d="M30.8904 2.1875C30.8436 2.12897 30.7841 2.08173 30.7166 2.04928C30.649 2.01682 30.575 1.99998 30.5 2H17.5C17.425 1.99998 17.351 2.01682 17.2834 2.04928C17.2158 2.08173 17.1564 2.12897 17.1096 2.1875L15.2596 4.5H32.7402L30.8904 2.1875Z" fill="white"/>
<path d="M20.2175 29.2322C21.4336 27.7952 22 25.9737 22 23.4999C22 23.4226 21.982 23.3462 21.9475 23.2769C21.913 23.2077 21.8629 23.1474 21.8011 23.1008L12.9803 16.4468C12.5558 16.1164 12.0353 15.9332 11.4974 15.9249C10.9596 15.9165 10.4336 16.0834 9.99906 16.4004C9.99194 16.4056 9.98494 16.4111 9.97812 16.4167L1.18338 23.613C1.12606 23.6599 1.07988 23.7189 1.04817 23.7859C1.01646 23.8528 1.00001 23.9259 1 23.9999C1 26.2958 1.55412 27.9695 2.74375 29.2673C3.8125 30.4329 5.249 31.1624 6.9125 32.0073C7.05367 32.079 7.19635 32.1516 7.34056 32.2251V32.8616C7.34057 32.9658 7.37313 33.0674 7.4337 33.1522C7.49426 33.237 7.57981 33.3008 7.67837 33.3346C10.2658 34.2217 13.0749 34.2217 15.6623 33.3346C15.7609 33.3007 15.8464 33.237 15.9069 33.1522C15.9675 33.0674 16 32.9658 16 32.8616V32.2241C17.6174 31.3828 19.1416 30.5036 20.2175 29.2322ZM11.5 25.4197C8.74431 25.4197 6.26444 25.2471 4.51719 24.9337C2.9905 24.6599 2.34688 24.3341 2.11406 24.1436L10.6 17.1999C10.8589 17.0143 11.1709 16.9176 11.4894 16.9242C11.8079 16.9308 12.1156 17.0404 12.3666 17.2366L12.3744 17.2429L20.9979 23.7475C20.9963 23.8436 20.9934 23.9377 20.9899 24.0309C20.9149 24.1718 20.3821 24.5929 18.4827 24.9336C16.7356 25.247 14.2557 25.4196 11.5 25.4196V25.4197Z" fill="white"/>
<path d="M9.67399 19.5404L6.67406 22.1208L7.32617 22.879L10.3261 20.2985L9.67399 19.5404Z" fill="white"/>
<path d="M16.3 21.6L15.7 22.4L17.7 23.9L18.3 23.1L16.3 21.6Z" fill="white"/>
<path d="M15 5.5V16.7178L22.4033 22.3025C22.5882 22.4427 22.7383 22.6237 22.8418 22.8314C22.9453 23.0391 22.9994 23.2679 23 23.5C23 25.5047 22.6519 27.1316 21.9191 28.5H33V5.5H15ZM23.5 7.7625V7H24.5V7.7625C24.9779 8.166 26 9.13063 26 10C26 10.5304 25.7893 11.0391 25.4142 11.4142C25.0391 11.7893 24.5304 12 24 12C23.4696 12 22.9609 11.7893 22.5858 11.4142C22.2107 11.0391 22 10.5304 22 10C22 9.13075 23.0221 8.16606 23.5 7.7625ZM23 18.5C23 18.6326 22.9473 18.7598 22.8536 18.8536C22.7598 18.9473 22.6326 19 22.5 19H21.9246C21.4143 18.9994 20.9251 18.7965 20.5643 18.4357C20.2035 18.0749 20.0006 17.5857 20 17.0754V15H21V15.5H21.0754C21.5857 15.5006 22.0749 15.7035 22.4357 16.0643C22.7965 16.4251 22.9994 16.9143 23 17.4246V18.5ZM23 14.5C23 14.6326 22.9473 14.7598 22.8536 14.8536C22.7598 14.9473 22.6326 15 22.5 15H21.9246C21.4143 14.9994 20.9251 14.7965 20.5643 14.4357C20.2035 14.0749 20.0006 13.5857 20 13.0754V11H21V11.5H21.0754C21.5857 11.5006 22.0749 11.7035 22.4357 12.0643C22.7965 12.4251 22.9994 12.9143 23 13.4246V14.5ZM24.5 27.5H23.5V12.5H24.5V27.5ZM28 20V21.0754C27.9994 21.5857 27.7965 22.0749 27.4357 22.4357C27.0749 22.7965 26.5857 22.9994 26.0754 23H25.5C25.3674 23 25.2402 22.9473 25.1464 22.8536C25.0527 22.7598 25 22.6326 25 22.5V21.4246C25.0006 20.9143 25.2035 20.4251 25.5643 20.0643C25.9251 19.7035 26.4143 19.5006 26.9246 19.5H27V19H28V20ZM28 16V17.0754C27.9994 17.5857 27.7965 18.0749 27.4357 18.4357C27.0749 18.7965 26.5857 18.9994 26.0754 19H25.5C25.3674 19 25.2402 18.9473 25.1464 18.8536C25.0527 18.7598 25 18.6326 25 18.5V17.4246C25.0006 16.9143 25.2035 16.4251 25.5643 16.0643C25.9251 15.7035 26.4143 15.5006 26.9246 15.5H27V15H28V16ZM28 12V13.0754C27.9994 13.5857 27.7965 14.0749 27.4357 14.4357C27.0749 14.7965 26.5857 14.9994 26.0754 15H25.5C25.3674 15 25.2402 14.9473 25.1464 14.8536C25.0527 14.7598 25 14.6326 25 14.5V13.4246C25.0006 12.9143 25.2035 12.4251 25.5643 12.0643C25.9251 11.7035 26.4143 11.5006 26.9246 11.5H27V11H28V12Z" fill="white"/>
<path d="M20.9809 29.8783C20.261 30.7289 19.3642 31.4158 18.4355 32H32.5C32.6326 32 32.7598 31.9473 32.8536 31.8536C32.9473 31.7598 33 31.6326 33 31.5V29.5H21.2813C21.1854 29.6284 21.0853 29.7545 20.9809 29.8783Z" fill="white"/>
</g>
<defs>
<filter id="filter0_dd" x="0" y="0" width="34" height="35" filterUnits="userSpaceOnUse" color-interpolation-filters="sRGB">
<feFlood flood-opacity="0" result="BackgroundImageFix"/>
<feColorMatrix in="SourceAlpha" type="matrix" values="0 0 0 0 0 0 0 0 0 0 0 0 0 0 0 0 0 0 127 0"/>
<feOffset dy="1"/>
<feColorMatrix type="matrix" values="0 0 0 0 1 0 0 0 0 1 0 0 0 0 1 0 0 0 0.25 0"/>
<feBlend mode="normal" in2="BackgroundImageFix" result="effect1_dropShadow"/>
<feColorMatrix in="SourceAlpha" type="matrix" values="0 0 0 0 0 0 0 0 0 0 0 0 0 0 0 0 0 0 127 0"/>
<feOffset dy="-1"/>
<feGaussianBlur stdDeviation="0.5"/>
<feColorMatrix type="matrix" values="0 0 0 0 0 0 0 0 0 0 0 0 0 0 0 0 0 0 0.1 0"/>
<feBlend mode="normal" in2="effect1_dropShadow" result="effect2_dropShadow"/>
<feBlend mode="normal" in="SourceGraphic" in2="effect2_dropShadow" result="shape"/>
</filter>
<clipPath id="clip0">
<rect width="32" height="32" fill="white" transform="translate(1 2)"/>
</clipPath>
</defs>
</svg>
